<svg xmlns="http://www.w3.org/2000/svg" viewBox="0 0 512 512">
  <defs>
    <linearGradient id="bg" x1="72" y1="56" x2="444" y2="464" gradientUnits="userSpaceOnUse">
      <stop stop-color="#818cf8"/>
      <stop offset="0.52" stop-color="#a78bfa"/>
      <stop offset="1" stop-color="#f472b6"/>
    </linearGradient>
  </defs>
  <rect width="512" height="512" rx="112" fill="url(#bg)"/>
  <circle cx="416" cy="104" r="52" fill="#fff" opacity="0.14"/>
  <circle cx="96" cy="412" r="68" fill="#fff" opacity="0.1"/>
  <path d="M133 235c0-73 58-128 137-128 42 0 82 17 108 47l54-13-18 65c14 20 22 44 22 70 0 74-67 132-158 132h-89c-62 0-113-50-113-112 0-25 8-48 24-67l33 6Z" fill="#fff"/>
  <path d="M188 389v40M350 385v44" stroke="#fff" stroke-width="30" stroke-linecap="round"/>
  <circle cx="341" cy="217" r="13" fill="#6366f1"/>
  <ellipse cx="409" cy="276" rx="46" ry="35" fill="#e0e7ff"/>
  <circle cx="394" cy="274" r="7" fill="#6366f1"/>
  <circle cx="422" cy="274" r="7" fill="#6366f1"/>
  <path d="M197 163c25-15 57-22 89-18" fill="none" stroke="#a78bfa" stroke-width="20" stroke-linecap="round"/>
  <path d="M130 234c-24-26-48-30-66-12 13 5 24 18 25 34" fill="none" stroke="#fff" stroke-width="18" stroke-linecap="round"/>
</svg>
